<svg width="48" height="48" viewBox="0 0 48 48" fill="none" xmlns="http://www.w3.org/2000/svg">
<path d="M26 4.1V8.14C33.9 9.12 40 15.84 40 24C40 30.42 36.16 36 30.56 38.56L26 34V44H36L33.56 41.56C39.82 38.14 44 31.52 44 24C44 13.64 36.1 5.1 26 4.1ZM22 4C18.1 4.4 14.4 5.92 11.36 8.42L14.2 11.26C16.4702 9.50996 19.1597 8.3859 22 8V4ZM8.4 11.36C5.92 14.4 4.4 18.1 4 22H8C8.38 19.16 9.5 16.46 11.26 14.2L8.4 11.36ZM12 16V20H18V22H16C13.8 22 12 23.8 12 26V32H22V28H16V26H18C20.22 26 22 24.22 22 22V20C22 18.9391 21.5786 17.9217 20.8284 17.1716C20.0783 16.4214 19.0609 16 18 16H12ZM24 16V26H30V32H34V26H36V22H34V16H30V22H28V16H24ZM4 26C4.4 29.9 5.94 33.6 8.44 36.64L11.28 33.8C9.52402 31.5312 8.39314 28.8419 8 26H4ZM14.22 36.74L11.36 39.58C14.3988 42.0611 18.0977 43.5977 22 44V40C19.1634 39.6229 16.4782 38.4977 14.22 36.74Z" fill="#535353"/>
</svg>
