<svg width="48" height="48" viewBox="0 0 48 48" fill="none" xmlns="http://www.w3.org/2000/svg">
<path d="M35.498 6L35.866 6.01C37.4603 6.09978 38.9657 6.77328 40.0952 7.90202C41.2247 9.03077 41.8992 10.5358 41.99 12.13L42 12.5V24.044C40.7719 23.257 39.4195 22.6836 38 22.348L37.996 16H10V35.5C10 36.794 10.984 37.86 12.244 37.988L12.5 38H22.35C22.69 39.44 23.27 40.79 24.046 42H12.496C10.8357 42.0001 9.23834 41.3649 8.03154 40.2247C6.82473 39.0844 6.1 37.5256 6.006 35.868L6 35.5V12.5C5.99989 10.8397 6.63511 9.24234 7.77534 8.03554C8.91558 6.82873 10.4744 6.104 12.132 6.01L12.498 6H35.498Z" fill="#535353"/>
<path d="M20.498 19C20.8605 19 21.2107 19.1313 21.4839 19.3695C21.7571 19.6078 21.9348 19.9369 21.984 20.296L21.998 20.5V34.5C21.998 34.8625 21.8668 35.2127 21.6285 35.4859C21.3903 35.759 21.0612 35.9367 20.702 35.986L20.498 36H13.498C13.1356 36 12.7854 35.8687 12.5122 35.6305C12.239 35.3922 12.0613 35.0631 12.012 34.704L11.998 34.5V20.5C11.9981 20.1375 12.1293 19.7873 12.3676 19.5141C12.6058 19.241 12.9349 19.0633 13.294 19.014L13.5 19H20.5H20.498ZM18.998 22H14.998V33H18.998V22Z" fill="#535353"/>
<path d="M34.498 19C34.878 19.0001 35.2439 19.1445 35.5216 19.4039C35.7993 19.6634 35.9681 20.0186 35.994 20.3978C36.0199 20.7769 35.901 21.1518 35.6611 21.4466C35.4213 21.7414 35.0785 21.9342 34.702 21.986L34.498 22H25.506C25.1261 21.9994 24.7606 21.8547 24.4833 21.595C24.206 21.3354 24.0375 20.9803 24.0118 20.6012C23.9862 20.2222 24.1053 19.8476 24.3452 19.553C24.585 19.2584 24.9276 19.0658 25.304 19.014L25.506 19H34.498Z" fill="#535353"/>
<path d="M25 31.258L25.894 32.118C26.2817 32.4912 26.5902 32.9388 26.8009 33.434C27.0116 33.9292 27.1202 34.4618 27.1202 35C27.1202 35.5382 27.0116 36.0708 26.8009 36.566C26.5902 37.0612 26.2817 37.5088 25.894 37.882L25 38.742C25.4 39.89 25.98 40.948 26.706 41.882L27.908 41.526C28.4282 41.3723 28.9743 41.3261 29.5129 41.3901C30.0516 41.4541 30.5716 41.627 31.0414 41.8982C31.5111 42.1695 31.9208 42.5335 32.2455 42.968C32.5701 43.4026 32.803 43.8986 32.93 44.426L33.276 45.856C34.4166 46.0485 35.5814 46.0485 36.722 45.856L37.068 44.424C37.1952 43.897 37.4282 43.4014 37.7528 42.9672C38.0775 42.5331 38.487 42.1694 38.9565 41.8984C39.426 41.6273 39.9457 41.4546 40.484 41.3906C41.0223 41.3265 41.568 41.3726 42.088 41.526L43.294 41.882C44.018 40.948 44.598 39.89 44.998 38.742L44.104 37.882C43.7162 37.5088 43.4078 37.0612 43.1971 36.566C42.9864 36.0708 42.8778 35.5382 42.8778 35C42.8778 34.4618 42.9864 33.9292 43.1971 33.434C43.4078 32.9388 43.7162 32.4912 44.104 32.118L44.998 31.258C44.6033 30.1262 44.0278 29.0658 43.294 28.118L42.09 28.474C41.5698 28.6277 41.0237 28.6739 40.4851 28.6099C39.9464 28.5459 39.4264 28.373 38.9566 28.1018C38.4869 27.8305 38.0772 27.4665 37.7525 27.032C37.4278 26.5974 37.195 26.1014 37.068 25.574L36.722 24.144C35.5814 23.9514 34.4166 23.9514 33.276 24.144L32.93 25.576C32.8028 26.103 32.5698 26.5986 32.2452 27.0328C31.9205 27.4669 31.511 27.8306 31.0415 28.1016C30.572 28.3727 30.0523 28.5454 29.514 28.6094C28.9757 28.6735 28.43 28.6274 27.91 28.474L26.706 28.118C25.9713 29.0655 25.3952 30.126 25 31.258ZM35 38C33.398 38 32.1 36.656 32.1 35C32.1 33.344 33.398 32 35 32C36.6 32 37.9 33.344 37.9 35C37.9 36.656 36.6 38 35 38Z" fill="#535353"/>
</svg>
